<svg width="149" height="40" viewBox="0 0 149 40" fill="none" xmlns="http://www.w3.org/2000/svg">
<rect width="148.25" height="40" rx="20" transform="matrix(1 0 0 -1 0 40)" fill="#F6EFE1"/>
<rect width="2.5" height="33" rx="1.25" transform="matrix(1 0 0 -1 18.75 36.5)" fill="#8D2438"/>
<rect width="2.5" height="20.3368" rx="1.25" transform="matrix(0.580703 0.814116 0.814116 -0.580703 11 24.9647)" fill="#8D2438"/>
<rect x="11" y="15.1903" width="2.5" height="20.3368" rx="1.25" transform="rotate(-54.5 11 15.1903)" fill="#8D2438"/>
<rect x="27.25" y="18.75" width="2.5" height="14.75" rx="1.25" transform="rotate(90 27.25 18.75)" fill="#8D2438"/>
<path d="M39.925 29.15C37.7583 29.15 36.675 28.825 36.675 28.175C36.675 27.9083 36.8167 27.7167 37.1 27.6C37.4 27.4833 37.8917 27.4083 38.575 27.375C38.8583 27.2917 39 26.4083 39 24.725V15.875C39 14.0583 38.8333 13.05 38.5 12.85C37.85 12.8167 37.3833 12.75 37.1 12.65C36.8333 12.5333 36.7 12.35 36.7 12.1C36.7 11.4667 37.7 11.15 39.7 11.15C40.65 11.15 41.3167 11.2333 41.7 11.4C42.0833 11.5667 42.4167 11.95 42.7 12.55C43.2 13.6333 44.0167 15.4417 45.15 17.975C46.2833 20.5083 47.1583 22.4333 47.775 23.75C49.025 21.1667 50.6417 17.475 52.625 12.675C52.8583 12.0917 53.1917 11.6917 53.625 11.475C54.0583 11.2583 54.7083 11.15 55.575 11.15C57.6417 11.15 58.675 11.4667 58.675 12.1C58.675 12.55 58.075 12.8 56.875 12.85C56.5917 13.0667 56.45 14.0333 56.45 15.75V24.725C56.45 26.4417 56.5833 27.3417 56.85 27.425C58.0333 27.475 58.625 27.725 58.625 28.175C58.625 28.825 57.3833 29.15 54.9 29.15C52.4 29.15 51.15 28.825 51.15 28.175C51.15 28.0083 51.2167 27.875 51.35 27.775C51.4833 27.6583 51.6833 27.575 51.95 27.525C52.2167 27.475 52.5833 27.4417 53.05 27.425C53.35 27.3417 53.5 26.4417 53.5 24.725V17.1C53.5 16.2 53.4833 15.5667 53.45 15.2C51.6 19.6667 49.9917 23.3 48.625 26.1C48.3917 26.55 48.175 26.875 47.975 27.075C47.7917 27.275 47.55 27.375 47.25 27.375C46.7167 27.375 46.25 26.9667 45.85 26.15C44.8167 24.0667 43.1583 20.4083 40.875 15.175C40.8583 15.775 40.85 17.05 40.85 19V24.725C40.85 26.3917 41.0333 27.275 41.4 27.375C42.7167 27.4417 43.375 27.7083 43.375 28.175C43.375 28.825 42.225 29.15 39.925 29.15ZM64.2266 29.4C62.4766 29.4 61.0516 28.8167 59.9516 27.65C58.8682 26.4833 58.3266 24.9667 58.3266 23.1C58.3266 21.1167 58.9349 19.4833 60.1516 18.2C61.3849 16.9167 62.8849 16.275 64.6516 16.275C66.1516 16.275 67.3766 16.7167 68.3266 17.6C69.2932 18.4833 69.7766 19.5 69.7766 20.65C69.7766 21.2167 69.6432 21.675 69.3766 22.025C69.1099 22.3583 68.7349 22.525 68.2516 22.525H60.8516C60.9349 23.875 61.3432 24.95 62.0766 25.75C62.8266 26.55 63.8182 26.95 65.0516 26.95C66.3682 26.95 67.5599 26.4167 68.6266 25.35C68.9432 25.0667 69.1766 24.925 69.3266 24.925C69.6766 24.925 69.8516 25.1417 69.8516 25.575C69.8516 26.1083 69.5766 26.675 69.0266 27.275C67.8432 28.6917 66.2432 29.4 64.2266 29.4ZM60.9266 21.15L66.1016 21.1C66.9182 21.1 67.3266 20.775 67.3266 20.125C67.3266 19.4417 67.0682 18.85 66.5516 18.35C66.0349 17.85 65.3516 17.6 64.5016 17.6C63.5516 17.6 62.7516 17.925 62.1016 18.575C61.4682 19.2083 61.0766 20.0667 60.9266 21.15ZM73.1904 29.15C71.0904 29.15 70.0404 28.8417 70.0404 28.225C70.0404 27.8083 70.5238 27.575 71.4904 27.525C71.7071 27.425 71.8154 26.55 71.8154 24.9V21.425C71.8154 19.725 71.6904 18.8083 71.4404 18.675C70.3738 18.6083 69.8404 18.375 69.8404 17.975C69.8404 17.725 70.0071 17.5083 70.3404 17.325C70.7571 17.1083 71.3321 16.9167 72.0654 16.75C72.7988 16.5667 73.3488 16.475 73.7154 16.475C74.0654 16.475 74.2988 16.5833 74.4154 16.8C74.5321 17.0167 74.5904 17.3667 74.5904 17.85V19.5C74.9904 18.5167 75.5488 17.7417 76.2654 17.175C76.9821 16.6083 77.6904 16.325 78.3904 16.325C78.9071 16.325 79.3488 16.4917 79.7154 16.825C80.0988 17.1417 80.2904 17.5917 80.2904 18.175C80.2904 18.725 80.1488 19.1667 79.8654 19.5C79.5988 19.8167 79.2488 19.975 78.8154 19.975C78.3654 19.975 77.9571 19.775 77.5904 19.375C77.5738 19.3583 77.5321 19.3167 77.4654 19.25C77.3988 19.1667 77.3488 19.1167 77.3154 19.1C77.2821 19.0667 77.2321 19.025 77.1654 18.975C77.0988 18.925 77.0321 18.8917 76.9654 18.875C76.8988 18.8583 76.8238 18.85 76.7404 18.85C76.2571 18.85 75.7738 19.1917 75.2904 19.875C74.8071 20.5417 74.5654 21.4 74.5654 22.45V24.9C74.5654 26.5333 74.6821 27.4 74.9154 27.5C75.6321 27.5333 76.1321 27.6 76.4154 27.7C76.6988 27.8 76.8404 27.975 76.8404 28.225C76.8404 28.8417 75.6238 29.15 73.1904 29.15ZM86.2244 28.225C86.2244 28.8417 85.1744 29.15 83.0744 29.15C80.9744 29.15 79.9244 28.8417 79.9244 28.225C79.9244 27.8083 80.4077 27.575 81.3744 27.525C81.5911 27.4417 81.6994 26.5667 81.6994 24.9V21.4C81.6994 19.7 81.5827 18.7917 81.3494 18.675C80.2827 18.6083 79.7494 18.375 79.7494 17.975C79.7494 17.6917 79.9161 17.475 80.2494 17.325C80.6661 17.1083 81.2327 16.9083 81.9494 16.725C82.6827 16.5417 83.2411 16.45 83.6244 16.45C83.9744 16.45 84.2077 16.5583 84.3244 16.775C84.4411 16.9917 84.4994 17.3417 84.4994 17.825C84.4994 18.025 84.4911 18.5833 84.4744 19.5C84.4577 20.4 84.4494 21.1917 84.4494 21.875V24.9C84.4494 26.5667 84.5494 27.4417 84.7494 27.525C85.2827 27.5583 85.6577 27.625 85.8744 27.725C86.1077 27.825 86.2244 27.9917 86.2244 28.225ZM81.0744 12.775C81.0744 12.2583 81.2661 11.8667 81.6494 11.6C82.0327 11.3333 82.4827 11.2 82.9994 11.2C83.5494 11.2 83.9744 11.3417 84.2744 11.625C84.5744 11.8917 84.7244 12.25 84.7244 12.7C84.7244 13.2167 84.5327 13.6167 84.1494 13.9C83.7661 14.1667 83.3077 14.3 82.7744 14.3C82.2577 14.3 81.8411 14.1667 81.5244 13.9C81.2244 13.6167 81.0744 13.2417 81.0744 12.775ZM91.3189 29.375C89.8189 29.375 88.5773 28.7833 87.5939 27.6C86.6273 26.4167 86.1439 24.8917 86.1439 23.025C86.1439 21.0083 86.6939 19.3833 87.7939 18.15C88.8939 16.9 90.3273 16.275 92.0939 16.275C93.6939 16.275 94.9606 16.8 95.8939 17.85V15.625C95.8939 13.9583 95.7106 13.0417 95.3439 12.875C94.1606 12.825 93.5689 12.5917 93.5689 12.175C93.5689 11.8917 93.7606 11.6667 94.1439 11.5C94.5939 11.2833 95.2189 11.0833 96.0189 10.9C96.8189 10.7167 97.4106 10.625 97.7939 10.625C98.1439 10.625 98.3773 10.7333 98.4939 10.95C98.6106 11.1667 98.6689 11.5167 98.6689 12C98.6689 12.2167 98.6606 12.775 98.6439 13.675C98.6439 14.5583 98.6439 15.3417 98.6439 16.025V24.275C98.6439 25.9917 98.7606 26.9083 98.9939 27.025C100.077 27.0917 100.619 27.325 100.619 27.725C100.619 27.975 100.444 28.1917 100.094 28.375C99.6439 28.5917 99.0689 28.7917 98.3689 28.975C97.6689 29.1417 97.1439 29.225 96.7939 29.225C96.4439 29.225 96.2106 29.1167 96.0939 28.9C95.9773 28.6833 95.9189 28.3333 95.9189 27.85C95.9189 27.75 95.9189 27.525 95.9189 27.175C95.9356 26.825 95.9439 26.5333 95.9439 26.3C95.5773 27.2167 94.9773 27.9583 94.1439 28.525C93.3106 29.0917 92.3689 29.375 91.3189 29.375ZM89.0689 22.65C89.0689 24.1833 89.3689 25.3833 89.9689 26.25C90.5856 27.1 91.3856 27.525 92.3689 27.525C93.3689 27.525 94.2106 27.0917 94.8939 26.225C95.5939 25.3417 95.9356 24.0417 95.9189 22.325C95.9023 20.7417 95.5856 19.5667 94.9689 18.8C94.3523 18.0167 93.5523 17.625 92.5689 17.625C91.4523 17.625 90.5856 18.075 89.9689 18.975C89.3689 19.875 89.0689 21.1 89.0689 22.65ZM106.674 28.225C106.674 28.8417 105.624 29.15 103.524 29.15C101.424 29.15 100.374 28.8417 100.374 28.225C100.374 27.8083 100.857 27.575 101.824 27.525C102.04 27.4417 102.149 26.5667 102.149 24.9V21.4C102.149 19.7 102.032 18.7917 101.799 18.675C100.732 18.6083 100.199 18.375 100.199 17.975C100.199 17.6917 100.365 17.475 100.699 17.325C101.115 17.1083 101.682 16.9083 102.399 16.725C103.132 16.5417 103.69 16.45 104.074 16.45C104.424 16.45 104.657 16.5583 104.774 16.775C104.89 16.9917 104.949 17.3417 104.949 17.825C104.949 18.025 104.94 18.5833 104.924 19.5C104.907 20.4 104.899 21.1917 104.899 21.875V24.9C104.899 26.5667 104.999 27.4417 105.199 27.525C105.732 27.5583 106.107 27.625 106.324 27.725C106.557 27.825 106.674 27.9917 106.674 28.225ZM101.524 12.775C101.524 12.2583 101.715 11.8667 102.099 11.6C102.482 11.3333 102.932 11.2 103.449 11.2C103.999 11.2 104.424 11.3417 104.724 11.625C105.024 11.8917 105.174 12.25 105.174 12.7C105.174 13.2167 104.982 13.6167 104.599 13.9C104.215 14.1667 103.757 14.3 103.224 14.3C102.707 14.3 102.29 14.1667 101.974 13.9C101.674 13.6167 101.524 13.2417 101.524 12.775ZM106.418 25.775C106.418 24.5917 106.91 23.6333 107.893 22.9C108.876 22.15 110.16 21.775 111.743 21.775C112.576 21.775 113.51 21.9083 114.543 22.175V20.75C114.543 20.35 114.526 20.0167 114.493 19.75C114.46 19.4833 114.385 19.1667 114.268 18.8C114.168 18.4333 113.976 18.15 113.693 17.95C113.41 17.75 113.051 17.65 112.618 17.65C111.801 17.65 110.935 18.2083 110.018 19.325C109.468 20.0083 108.918 20.35 108.368 20.35C108.051 20.35 107.793 20.2583 107.593 20.075C107.393 19.8917 107.293 19.6583 107.293 19.375C107.293 18.7083 107.951 18.025 109.268 17.325C110.601 16.625 111.935 16.275 113.268 16.275C114.551 16.275 115.543 16.6167 116.243 17.3C116.943 17.9667 117.293 18.9333 117.293 20.2V24.9C117.293 25.4667 117.318 25.9 117.368 26.2C117.418 26.4833 117.56 26.7583 117.793 27.025C118.026 27.2917 118.385 27.475 118.868 27.575C119.001 27.5917 119.068 27.675 119.068 27.825C119.068 28.1417 118.876 28.45 118.493 28.75C118.126 29.0333 117.643 29.175 117.043 29.175C115.81 29.175 115.001 28.4833 114.618 27.1C113.685 28.6167 112.301 29.375 110.468 29.375C109.268 29.375 108.293 29.0417 107.543 28.375C106.793 27.6917 106.418 26.825 106.418 25.775ZM109.218 25.4C109.218 26.05 109.426 26.5833 109.843 27C110.26 27.4167 110.818 27.625 111.518 27.625C112.351 27.625 113.068 27.3167 113.668 26.7C114.285 26.0833 114.593 25.3167 114.593 24.4V23.65C113.86 23.3 113.068 23.125 112.218 23.125C111.268 23.125 110.526 23.3333 109.993 23.75C109.476 24.1667 109.218 24.7167 109.218 25.4ZM130.719 29.15C128.535 29.15 127.444 28.8417 127.444 28.225C127.444 27.9917 127.56 27.825 127.794 27.725C128.044 27.625 128.452 27.5583 129.019 27.525C129.252 27.425 129.369 26.55 129.369 24.9V22.075C129.369 20.7417 129.16 19.775 128.744 19.175C128.344 18.575 127.685 18.275 126.769 18.275C125.852 18.275 125.06 18.6583 124.394 19.425C123.727 20.175 123.394 21.3167 123.394 22.85V24.9C123.394 26.5667 123.494 27.4417 123.694 27.525C124.294 27.5583 124.71 27.625 124.944 27.725C125.177 27.825 125.294 27.9917 125.294 28.225C125.294 28.8417 124.194 29.15 121.994 29.15C119.894 29.15 118.844 28.8417 118.844 28.225C118.844 27.8083 119.335 27.575 120.319 27.525C120.535 27.425 120.644 26.55 120.644 24.9V21.4C120.644 19.7167 120.519 18.8083 120.269 18.675C119.202 18.6083 118.669 18.375 118.669 17.975C118.669 17.725 118.835 17.5083 119.169 17.325C119.602 17.1083 120.177 16.9167 120.894 16.75C121.627 16.5667 122.177 16.475 122.544 16.475C122.894 16.475 123.127 16.5833 123.244 16.8C123.36 17 123.419 17.35 123.419 17.85V19.325C123.835 18.375 124.444 17.6333 125.244 17.1C126.06 16.5667 126.985 16.3 128.019 16.3C129.235 16.3 130.219 16.6917 130.969 17.475C131.735 18.2417 132.119 19.425 132.119 21.025V24.9C132.119 25.95 132.127 26.6333 132.144 26.95C132.177 27.2667 132.26 27.4583 132.394 27.525C132.927 27.5583 133.31 27.625 133.544 27.725C133.777 27.825 133.894 27.9917 133.894 28.225C133.894 28.8417 132.835 29.15 130.719 29.15Z" fill="#34051C"/>
</svg>
